<svg xmlns="http://www.w3.org/2000/svg" viewBox="0 0 408.7 108.11"><defs><style>.cls-1{fill:#fff;}</style></defs><g id="Layer_2" data-name="Layer 2"><g id="Layer_1-2" data-name="Layer 1"><path class="cls-1" d="M131.07,64.19l-3,9.4H118l13.06-36.21h11.55l13.06,36.21H145.4l-3-9.4Zm2.31-7.34h6.72l-3.36-11.13Z"/><path class="cls-1" d="M167,63.51a15.61,15.61,0,0,0,.11,2.57c.16,1.11.63,1.47,3.1,1.37v6.4c-1.74.16-3.42.26-5.51.26-4.36,0-6.83-1.73-7-5.46-.1-1.46-.1-2.88-.1-5V35H167Z"/><path class="cls-1" d="M204.74,59c0,10-6.08,15.37-13.27,15.37A14.55,14.55,0,0,1,185,73l-1.83-3v13.9h-9.45V45.57h9.45v4.09l2.1-3.1c1.57-1.15,4.3-1.73,7.13-1.73,7.61,0,12.33,5.83,12.33,14.12m-9.65.47c0-5.25-2.62-8.19-5.93-8.19-3.46,0-6,2.1-6,8v1.21c0,5.61,2.88,7.5,5.72,7.5,3.67,0,6.19-2.78,6.19-8.5"/><path class="cls-1" d="M237.28,57.74V73.59h-9.45V59.31c0-.89,0-2.41-.1-3.83-.21-2.67-1.68-4.25-4.52-4.25s-4.93,2.78-4.93,9.13V73.59h-9.44V34.76h9.44V49.92l2.52-3.46a11.69,11.69,0,0,1,6.3-1.63c5.77,0,9.18,2.73,9.91,7.61a36.72,36.72,0,0,1,.27,5.3"/><path class="cls-1" d="M258.42,69.49l-1.15,2.94a12.84,12.84,0,0,1-6.93,1.89c-4.62,0-9-2.88-9-8.29,0-6,5.67-9.65,15.16-9.65h1.79V56a14.89,14.89,0,0,0-.11-2.05,3.1,3.1,0,0,0-3.36-2.68c-2.2,0-3.46,1.42-3.62,3.83l-8.92.06c.05-6.56,5.88-10.29,13-10.29,8.87,0,11.92,3.94,12.33,9,.11,1.41.16,3,.16,4.77V66.5a48.43,48.43,0,0,0,.53,7.09h-9.24Zm-.1-5.93V61.73c-4.25-.32-7.3.79-7.3,3.57,0,1.68,1.32,2.62,3.2,2.62a4.13,4.13,0,0,0,4.1-4.36"/><path class="cls-1" d="M316.19,73.59h-9.44V58.37c0-3.15,0-7.82.1-11.49-.63,3.67-1.68,8.29-2.52,11.49l-4,15.22h-9.71l-4-15.22c-.84-3.15-1.89-7.82-2.47-11.49.11,3.67.11,8.34.11,11.49V73.59h-9.45V37.38h14.75l6.14,27,6.14-27h14.37Z"/><path class="cls-1" d="M349.14,61.94H329.62c.48,4.67,2.52,6,5.2,6s4.3-1.36,4.67-3.52h9.29c-1.63,6.35-6.88,9.92-14.07,9.92-8,0-14.43-4.77-14.43-14.64,0-8.18,5.62-14.85,15-14.85S349.3,52,349.3,59.21a24.11,24.11,0,0,1-.16,2.73m-19.2-5.77h9.5c-.53-3.31-2.15-4.94-4.67-4.94s-4.2,1.47-4.83,4.94"/><path class="cls-1" d="M382.83,73.59h-9.44v-4.1l-2.1,3.1c-1.58,1.15-4.31,1.73-7.14,1.73-7.61,0-12.33-5.82-12.33-14.11,0-10,6.09-15.38,13.28-15.38a14.5,14.5,0,0,1,6.45,1.37l1.84,3V35h9.44Zm-9.44-13.65v-1.2c0-5.62-2.89-7.51-5.72-7.51-3.68,0-6.19,2.78-6.19,8.5,0,5.25,2.62,8.19,5.93,8.19s6-2.1,6-8"/><path class="cls-1" d="M41.83,54.52A13.55,13.55,0,1,0,55.37,41,13.55,13.55,0,0,0,41.83,54.52M33,4.25a54.05,54.05,0,1,0,65.6,80.44L84.28,71.5a34.9,34.9,0,1,1,.5-34L98.89,23.83a54.65,54.65,0,0,0-6.61-8A54.12,54.12,0,0,0,33,4.25"/><path class="cls-1" d="M96.81,54.59l10.46,9A55.07,55.07,0,0,0,107.36,45Z"/><path class="cls-1" d="M397.4,54.55a54.81,54.81,0,0,0,.76,9.08L408.7,54l-10.45-9a54.29,54.29,0,0,0-.85,9.56"/><rect class="cls-1" x="148.32" y="88.73" width="1.76" height="12.56"/><path class="cls-1" d="M153,92.32h1.77v9H153Zm5.45,9V95.86a2.07,2.07,0,0,0-.49-1.47,2.13,2.13,0,0,0-2.72-.06,1.67,1.67,0,0,0-.47,1.28l-.19-1.72a3.22,3.22,0,0,1,1.09-1.26,2.67,2.67,0,0,1,1.48-.44,2.76,2.76,0,0,1,2.26,1,4.08,4.08,0,0,1,.8,2.7v5.44Z"/><path class="cls-1" d="M162.91,92.32h1.76v9h-1.76Zm5.44,9V95.86a2,2,0,0,0-.49-1.47,1.77,1.77,0,0,0-1.38-.52,1.83,1.83,0,0,0-1.34.46,1.71,1.71,0,0,0-.47,1.28l-.18-1.72a3.22,3.22,0,0,1,1.09-1.26,2.65,2.65,0,0,1,1.48-.44,2.79,2.79,0,0,1,2.26,1,4.08,4.08,0,0,1,.8,2.7v5.44Z"/><path class="cls-1" d="M176.23,101.42a3.6,3.6,0,0,1-2.73-1,4.08,4.08,0,0,1-1-2.89V96.05a4,4,0,0,1,1-2.85,4.21,4.21,0,0,1,5.47,0,4,4,0,0,1,1,2.85v1.49a4,4,0,0,1-1,2.87,3.64,3.64,0,0,1-2.74,1m0-1.68a1.8,1.8,0,0,0,1.43-.57,2.39,2.39,0,0,0,.51-1.63V96.05a2.34,2.34,0,0,0-.51-1.61,2.07,2.07,0,0,0-2.85,0,2.34,2.34,0,0,0-.51,1.61v1.49a2.39,2.39,0,0,0,.51,1.63,1.8,1.8,0,0,0,1.42.57"/><polygon class="cls-1" points="185.18 98.72 187.37 92.32 189.21 92.32 185.84 101.29 184.51 101.29 181.14 92.32 182.98 92.32 185.18 98.72"/><path class="cls-1" d="M193.81,101.42a3.83,3.83,0,0,1-2.47-.68,2.56,2.56,0,0,1-.83-2.09,2.49,2.49,0,0,1,.76-2,3.35,3.35,0,0,1,2.26-.66h2.55l.13,1.41h-2.67a1.56,1.56,0,0,0-1,.31,1.22,1.22,0,0,0-.34.94,1.16,1.16,0,0,0,.46,1A2.33,2.33,0,0,0,194,100a4.11,4.11,0,0,0,1.51-.22.71.71,0,0,0,.5-.67l.18,1.26a2,2,0,0,1-.58.59,2.35,2.35,0,0,1-.79.35,3.89,3.89,0,0,1-1,.12m2.2-.13V95.61a1.9,1.9,0,0,0-.47-1.37,1.77,1.77,0,0,0-1.34-.49,3.37,3.37,0,0,0-1,.16,2.94,2.94,0,0,0-.92.46L191,93.49a3.38,3.38,0,0,1,1.35-1,5,5,0,0,1,1.85-.34,3.67,3.67,0,0,1,2.61.87,3.24,3.24,0,0,1,.92,2.47v5.76Z"/><path class="cls-1" d="M199.67,92.32h4v1.59h-4Zm3,9a1.94,1.94,0,0,1-1.6-.61A2.75,2.75,0,0,1,200.6,99V89.71h1.76V99a.82.82,0,0,0,.13.5.43.43,0,0,0,.38.18h.84v1.67Z"/><path class="cls-1" d="M206.13,88.73h1.77v1.76h-1.77Zm0,3.59h1.77v9h-1.77Z"/><path class="cls-1" d="M214,101.42a3.61,3.61,0,0,1-2.74-1,4.08,4.08,0,0,1-1-2.89V96.05a4,4,0,0,1,1-2.85,4.21,4.21,0,0,1,5.47,0,4,4,0,0,1,1,2.85v1.49a4,4,0,0,1-1,2.87,3.63,3.63,0,0,1-2.73,1m0-1.68a1.82,1.82,0,0,0,1.43-.57,2.44,2.44,0,0,0,.5-1.63V96.05a2.39,2.39,0,0,0-.5-1.61,2.08,2.08,0,0,0-2.86,0,2.34,2.34,0,0,0-.51,1.61v1.49a2.39,2.39,0,0,0,.51,1.63,1.81,1.81,0,0,0,1.43.57"/><path class="cls-1" d="M220.22,92.32H222v9h-1.76Zm5.44,9V95.86a2.07,2.07,0,0,0-.48-1.47,1.81,1.81,0,0,0-1.39-.52,1.83,1.83,0,0,0-1.34.46,1.71,1.71,0,0,0-.47,1.28l-.18-1.72a3.22,3.22,0,0,1,1.09-1.26,2.65,2.65,0,0,1,1.48-.44,2.79,2.79,0,0,1,2.26,1,4.08,4.08,0,0,1,.8,2.7v5.44Z"/><path class="cls-1" d="M233.28,101.42a6.46,6.46,0,0,1-2.17-.35,5,5,0,0,1-1.74-1l1-1.29a6,6,0,0,0,1.44.83,3.82,3.82,0,0,0,1.42.28,3.12,3.12,0,0,0,1.57-.32,1.09,1.09,0,0,0,.52-1,.77.77,0,0,0-.35-.71,2.64,2.64,0,0,0-.92-.27l-1.21-.11a9.65,9.65,0,0,1-1.08-.13,3.15,3.15,0,0,1-1-.33,1.75,1.75,0,0,1-.7-.7,2.49,2.49,0,0,1-.27-1.25,2.59,2.59,0,0,1,.88-2.14,4.07,4.07,0,0,1,2.6-.71,6.54,6.54,0,0,1,2,.29,5.83,5.83,0,0,1,1.7.87l-1.06,1.29a5.62,5.62,0,0,0-1.33-.65,4.14,4.14,0,0,0-1.27-.22,2.45,2.45,0,0,0-1.35.31,1,1,0,0,0-.45.92.6.6,0,0,0,.31.58,2,2,0,0,0,.82.23l1.1.1q.55,0,1.14.12a3.33,3.33,0,0,1,1.05.35,1.93,1.93,0,0,1,.78.77,2.76,2.76,0,0,1,.3,1.39,2.54,2.54,0,0,1-.94,2.16,4.61,4.61,0,0,1-2.82.72"/><path class="cls-1" d="M244,88.73h1.76v1.76H244Zm0,3.59h1.76v9H244Z"/><path class="cls-1" d="M248.48,92.32h1.76v9h-1.76Zm5.44,9V95.86a2,2,0,0,0-.49-1.47,1.77,1.77,0,0,0-1.38-.52,1.82,1.82,0,0,0-1.34.46,1.71,1.71,0,0,0-.47,1.28l-.18-1.72a3.28,3.28,0,0,1,1.08-1.26,2.68,2.68,0,0,1,1.49-.44,2.79,2.79,0,0,1,2.26,1,4.08,4.08,0,0,1,.79,2.7v5.44Z"/><path class="cls-1" d="M263.29,88.73h1.76v12.56h-1.76Zm1.1,5.54h7v1.67h-7Zm6-5.54h1.76v12.56h-1.76Z"/><path class="cls-1" d="M278.8,101.42a3.9,3.9,0,0,1-2.9-1,4.06,4.06,0,0,1-1-3v-1a4.46,4.46,0,0,1,1-3.1,3.56,3.56,0,0,1,2.78-1.1,3.1,3.1,0,0,1,2.63,1.25,5.73,5.73,0,0,1,.93,3.49v.59h-6.05V96.1h4.37a2.94,2.94,0,0,0-.57-1.7,1.58,1.58,0,0,0-1.31-.62,1.9,1.9,0,0,0-1.54.66,2.81,2.81,0,0,0-.56,1.86v1.14a2.31,2.31,0,0,0,.6,1.71,2.22,2.22,0,0,0,1.66.59,2.82,2.82,0,0,0,1.06-.21,3.28,3.28,0,0,0,.95-.61l1.15,1.16a4.73,4.73,0,0,1-1.49,1,4.31,4.31,0,0,1-1.67.35"/><path class="cls-1" d="M287.49,101.42a3.84,3.84,0,0,1-2.48-.68,2.56,2.56,0,0,1-.83-2.09,2.52,2.52,0,0,1,.76-2,3.36,3.36,0,0,1,2.27-.66h2.55l.12,1.41h-2.66a1.53,1.53,0,0,0-1,.31,1.19,1.19,0,0,0-.35.94,1.18,1.18,0,0,0,.46,1,2.36,2.36,0,0,0,1.38.33,4.09,4.09,0,0,0,1.5-.22.71.71,0,0,0,.5-.67l.18,1.26a1.92,1.92,0,0,1-.58.59,2.27,2.27,0,0,1-.79.35,3.81,3.81,0,0,1-1,.12m2.19-.13V95.61a1.9,1.9,0,0,0-.47-1.37,1.75,1.75,0,0,0-1.34-.49,3.41,3.41,0,0,0-1,.16,2.94,2.94,0,0,0-.92.46l-1.28-.88a3.28,3.28,0,0,1,1.34-1,5,5,0,0,1,1.85-.34,3.64,3.64,0,0,1,2.61.87,3.24,3.24,0,0,1,.93,2.47v5.76Z"/><path class="cls-1" d="M295.8,88.73V99a.82.82,0,0,0,.14.5.49.49,0,0,0,.4.18h.83v1.68h-1a2,2,0,0,1-1.55-.63A2.54,2.54,0,0,1,294,99V88.73Z"/><path class="cls-1" d="M298.47,92.32h4v1.59h-4Zm3,9a1.94,1.94,0,0,1-1.6-.61,2.75,2.75,0,0,1-.5-1.76V89.71h1.77V99a.82.82,0,0,0,.13.5.43.43,0,0,0,.38.18h.84v1.67Z"/><path class="cls-1" d="M304.93,88.73h1.77v12.56h-1.77Zm5.45,12.56V95.86a2.07,2.07,0,0,0-.49-1.47,1.81,1.81,0,0,0-1.39-.52,1.85,1.85,0,0,0-1.33.45,1.65,1.65,0,0,0-.47,1.27l-.19-1.73a3.19,3.19,0,0,1,1.09-1.23,2.67,2.67,0,0,1,1.48-.44,2.78,2.78,0,0,1,2.26,1,4.08,4.08,0,0,1,.8,2.7v5.44Z"/><path class="cls-1" d="M318.44,101.42a3.85,3.85,0,0,1-2.86-1,3.89,3.89,0,0,1-1-2.88V96.05a3.82,3.82,0,0,1,1-2.85,3.88,3.88,0,0,1,2.86-1,4.8,4.8,0,0,1,1.9.37,3.27,3.27,0,0,1,1.35,1.07l-1.27,1.14a2.61,2.61,0,0,0-.88-.67,2.64,2.64,0,0,0-1.07-.23,2.15,2.15,0,0,0-1.59.57,2.2,2.2,0,0,0-.56,1.61v1.47a2.3,2.3,0,0,0,.56,1.65,2.15,2.15,0,0,0,1.59.57,2.37,2.37,0,0,0,1.07-.25,2.58,2.58,0,0,0,.88-.7l1.27,1.22a3.28,3.28,0,0,1-1.35,1,4.67,4.67,0,0,1-1.9.37"/><path class="cls-1" d="M326.5,101.42a3.83,3.83,0,0,1-2.47-.68,2.56,2.56,0,0,1-.83-2.09,2.49,2.49,0,0,1,.76-2,3.35,3.35,0,0,1,2.26-.66h2.55l.13,1.41h-2.67a1.56,1.56,0,0,0-1,.31,1.22,1.22,0,0,0-.34.94,1.16,1.16,0,0,0,.46,1,2.33,2.33,0,0,0,1.37.33,4.11,4.11,0,0,0,1.51-.22.71.71,0,0,0,.5-.67l.18,1.26a2,2,0,0,1-.58.59,2.35,2.35,0,0,1-.79.35,3.89,3.89,0,0,1-1,.12m2.2-.13V95.61a1.9,1.9,0,0,0-.47-1.37,1.77,1.77,0,0,0-1.34-.49,3.37,3.37,0,0,0-1,.16,2.94,2.94,0,0,0-.92.46l-1.29-.88a3.38,3.38,0,0,1,1.35-1,5,5,0,0,1,1.85-.34,3.67,3.67,0,0,1,2.61.87,3.24,3.24,0,0,1,.92,2.47v5.76Z"/><path class="cls-1" d="M333.05,92.32h1.77v9h-1.77ZM338,94.45a1.48,1.48,0,0,0-.59-.43,2.1,2.1,0,0,0-.82-.15,1.75,1.75,0,0,0-1.3.46,1.73,1.73,0,0,0-.46,1.28l-.19-1.72a3.29,3.29,0,0,1,1.07-1.25,2.54,2.54,0,0,1,1.46-.45,3.23,3.23,0,0,1,1.11.18,2.55,2.55,0,0,1,.87.52Z"/><path class="cls-1" d="M344.1,101.42a3.91,3.91,0,0,1-2.9-1,4.06,4.06,0,0,1-1-3v-1a4.46,4.46,0,0,1,1-3.1,3.57,3.57,0,0,1,2.79-1.1,3.08,3.08,0,0,1,2.62,1.25,5.73,5.73,0,0,1,.93,3.49v.59h-6.05V96.1h4.37a3,3,0,0,0-.56-1.7,1.59,1.59,0,0,0-1.31-.62,1.92,1.92,0,0,0-1.55.66,2.81,2.81,0,0,0-.55,1.86v1.14a2.35,2.35,0,0,0,.59,1.71,2.23,2.23,0,0,0,1.66.59,2.87,2.87,0,0,0,1.07-.21,3.23,3.23,0,0,0,.94-.61l1.16,1.16a4.77,4.77,0,0,1-1.5,1,4.31,4.31,0,0,1-1.67.35"/></g></g></svg>